<svg xmlns="http://www.w3.org/2000/svg" width="20" height="20" viewBox="0 0 20 20" fill="none"  >
<g opacity="0.4">
    <path d="M16.0086 5.29977C15.1419 3.54977 13.4669 2.2581 11.5253 1.8331C9.49193 1.3831 7.40859 1.86643 5.81693 3.14976C4.21693 4.42476 3.30859 6.3331 3.30859 8.37476C3.30859 10.5331 4.60026 12.7914 6.55026 14.0998V14.7914C6.54193 15.0248 6.53359 15.3831 6.81693 15.6748C7.10859 15.9748 7.54193 16.0081 7.88359 16.0081H12.1586C12.6086 16.0081 12.9503 15.8831 13.1836 15.6498C13.5003 15.3248 13.4919 14.9081 13.4836 14.6831V14.0998C16.0669 12.3581 17.6919 8.6831 16.0086 5.29977Z" stroke="#100A55" />
<path d="M12.716 18.3332C12.666 18.3332 12.6076 18.3248 12.5576 18.3082C10.8826 17.8332 9.12431 17.8332 7.44931 18.3082C7.14098 18.3915 6.81598 18.2165 6.73265 17.9082C6.64098 17.5998 6.82431 17.2748 7.13265 17.1915C9.01598 16.6582 10.9993 16.6582 12.8826 17.1915C13.191 17.2832 13.3743 17.5998 13.2826 17.9082C13.1993 18.1665 12.966 18.3332 12.716 18.3332Z" stroke="#100A55" />
</g>
</svg>