<svg xmlns="http://www.w3.org/2000/svg" width="20" height="20" viewBox="0 0 20 20" fill="none">
  <g opacity="0.4" clip-path="url(#clip0_29291_1697)">
    <path d="M9.99935 18.3332C14.5827 18.3332 18.3327 14.5832 18.3327 9.99984C18.3327 5.4165 14.5827 1.6665 9.99935 1.6665C5.41602 1.6665 1.66602 5.4165 1.66602 9.99984C1.66602 14.5832 5.41602 18.3332 9.99935 18.3332Z" stroke="#100A55" stroke-width="2" stroke-linecap="round" stroke-linejoin="round"/>
    <path d="M7.5 7.70737C7.5 7.21039 7.73033 6.73376 8.14032 6.38234C8.55031 6.03092 9.10637 5.8335 9.68618 5.8335H10.3108C10.8906 5.8335 11.4467 6.03092 11.8567 6.38234C12.2667 6.73376 12.497 7.21039 12.497 7.70737C12.52 8.11291 12.4106 8.51494 12.1853 8.85291C11.96 9.19089 11.6309 9.44649 11.2477 9.58124C10.8646 9.7609 10.5355 10.1017 10.3102 10.5523C10.0849 11.003 9.9755 10.9144 9.9985 11.4551" stroke="#000929" stroke-width="2" stroke-linecap="round" stroke-linejoin="round"/>
    <path d="M9.99805 14.5781V14.5844" stroke="#000929" stroke-width="2" stroke-linecap="round" stroke-linejoin="round"/>
  </g>
  <defs>
    <clipPath id="clip0_29291_1697">
      <rect width="20" height="20" fill="white"/>
    </clipPath>
  </defs>
</svg>